<?xml version="1.0" encoding="utf-8"?><svg xmlns="http://www.w3.org/2000/svg" xmlns:xlink="http://www.w3.org/1999/xlink"><symbol viewBox="0 0 19 18" fill="none" id="faceebok" xmlns="http://www.w3.org/2000/svg">
    <g clip-path="url(#bclip0_1_317)">
        <path fill-rule="evenodd" clip-rule="evenodd" d="M18.5147 9.50731C18.5147 4.7675 14.5237 0.924316 9.60158 0.924316C4.67948 0.924316 0.688477 4.7675 0.688477 9.50731C0.688477 13.7911 3.94733 17.342 8.20891 17.9865V11.9891H5.94522V9.50731H8.20891V7.61637C8.20891 5.46564 9.53991 4.27666 11.5756 4.27666C12.5509 4.27666 13.5711 4.44449 13.5711 4.44449V6.5569H12.4466C11.34 6.5569 10.9939 7.21825 10.9939 7.898V9.50731H13.4657L13.0709 11.9891H10.9943V17.9872C15.2558 17.3431 18.5147 13.7923 18.5147 9.50731Z" fill="currentColor"/>
    </g>
    <defs>
        <clipPath id="bclip0_1_317">
            <rect width="19" height="18" fill="white"/>
        </clipPath>
    </defs>
</symbol><symbol viewBox="0 0 60 60" fill="none" id="faceebok-f" xmlns="http://www.w3.org/2000/svg">
    <path d="M0 30C0 13.4315 13.4315 0 30 0C46.5685 0 60 13.4315 60 30C60 46.5685 46.5685 60 30 60C13.4315 60 0 46.5685 0 30Z" ffill="currentColor"/>
    <g clip-path="url(#aclip0_1_1021)">
        <path fill-rule="evenodd" clip-rule="evenodd" d="M39.2828 30.2843C39.2828 25.1572 34.9657 21 29.6414 21C24.3171 21 20 25.1572 20 30.2843C20 34.9182 23.5251 38.7592 28.1349 39.4563V32.9689H25.6863V30.2843H28.1349V28.2389C28.1349 25.9124 29.5747 24.6263 31.7767 24.6263C32.8317 24.6263 33.9353 24.8078 33.9353 24.8078V27.0928H32.7189C31.5219 27.0928 31.1475 27.8082 31.1475 28.5435V30.2843H33.8212L33.3942 32.9689H31.1479V39.4572C35.7577 38.7604 39.2828 34.9194 39.2828 30.2843Z" fill="currentColor"/>
    </g>
    <defs>
        <clipPath id="aclip0_1_1021">
            <rect width="20" height="19" fill="white" transform="translate(20 21)"/>
        </clipPath>
    </defs>
</symbol><symbol viewBox="0 0 18 19" fill="none" id="instagram" xmlns="http://www.w3.org/2000/svg">
    <g clip-path="url(#dclip0_1_323)">
        <path d="M12.6268 2.35469C13.6109 2.35752 14.5539 2.73524 15.2498 3.40535C15.9456 4.07546 16.3379 4.98351 16.3408 5.93119V13.0834C16.3379 14.0311 15.9456 14.9392 15.2498 15.6093C14.5539 16.2794 13.6109 16.6571 12.6268 16.6599H5.19944C4.21532 16.6571 3.27234 16.2794 2.57645 15.6093C1.88057 14.9392 1.48832 14.0311 1.48539 13.0834V5.93119C1.48832 4.98351 1.88057 4.07546 2.57645 3.40535C3.27234 2.73524 4.21532 2.35752 5.19944 2.35469H12.6268ZM12.6268 0.924316H5.19944C2.33969 0.924316 0 3.17735 0 5.93119V13.0834C0 15.8373 2.33969 18.0903 5.19944 18.0903H12.6268C15.4865 18.0903 17.8262 15.8373 17.8262 13.0834V5.93119C17.8262 3.17735 15.4865 0.924316 12.6268 0.924316Z" fill="currentColor"/>
        <path d="M13.7409 5.93139C13.5205 5.93139 13.3051 5.86847 13.1219 5.75058C12.9387 5.63269 12.7959 5.46513 12.7116 5.26909C12.6272 5.07305 12.6052 4.85733 12.6482 4.64921C12.6912 4.44109 12.7973 4.24993 12.9531 4.09988C13.1089 3.94984 13.3074 3.84766 13.5235 3.80626C13.7397 3.76486 13.9637 3.78611 14.1673 3.86731C14.3708 3.94852 14.5448 4.08603 14.6673 4.26246C14.7897 4.4389 14.855 4.64632 14.855 4.85852C14.8553 4.9995 14.8267 5.13914 14.7709 5.26945C14.715 5.39975 14.6329 5.51815 14.5294 5.61783C14.4259 5.71752 14.3029 5.79653 14.1676 5.85034C14.0323 5.90415 13.8873 5.9317 13.7409 5.93139ZM8.9131 6.64639C9.50074 6.64639 10.0752 6.81419 10.5638 7.12857C11.0524 7.44296 11.4332 7.8898 11.6581 8.41261C11.883 8.93541 11.9418 9.51069 11.8272 10.0657C11.7125 10.6207 11.4296 11.1305 11.014 11.5306C10.5985 11.9308 10.0691 12.2033 9.49274 12.3137C8.91639 12.4241 8.31899 12.3674 7.77608 12.1508C7.23317 11.9343 6.76914 11.5676 6.44266 11.0971C6.11619 10.6266 5.94193 10.0734 5.94193 9.50751C5.94277 8.74894 6.25608 8.02168 6.81309 7.48529C7.37011 6.9489 8.12535 6.6472 8.9131 6.64639ZM8.9131 5.21602C8.03167 5.21602 7.17005 5.46771 6.43717 5.93926C5.70429 6.41082 5.13309 7.08106 4.79578 7.86523C4.45847 8.6494 4.37022 9.51227 4.54218 10.3447C4.71413 11.1772 5.13858 11.9419 5.76184 12.5421C6.3851 13.1422 7.17918 13.551 8.04367 13.7165C8.90815 13.8821 9.80422 13.7972 10.6185 13.4723C11.4329 13.1475 12.1289 12.5975 12.6186 11.8917C13.1083 11.186 13.3696 10.3563 13.3696 9.50751C13.3696 8.36934 12.9001 7.27778 12.0644 6.47297C11.2286 5.66815 10.095 5.21602 8.9131 5.21602Z" fill="currentColor"/>
    </g>
    <defs>
        <clipPath id="dclip0_1_323">
            <rect width="18" height="19" fill="white"/>
        </clipPath>
    </defs>
</symbol><symbol viewBox="0 0 60 60" fill="none" id="instagram-f" xmlns="http://www.w3.org/2000/svg">
    <path d="M0 30C0 13.4315 13.4315 0 30 0C46.5685 0 60 13.4315 60 30C60 46.5685 46.5685 60 30 60C13.4315 60 0 46.5685 0 30Z" fill="currentColor"/>
    <g clip-path="url(#cclip0_1_1033)">
        <path d="M33.6585 22.5473C34.7231 22.5503 35.7431 22.9589 36.4958 23.6838C37.2486 24.4086 37.6729 25.3909 37.6761 26.416V34.1527C37.6729 35.1778 37.2486 36.16 36.4958 36.8849C35.7431 37.6098 34.7231 38.0183 33.6585 38.0214H25.6243C24.5598 38.0183 23.5397 37.6098 22.787 36.8849C22.0342 36.16 21.6099 35.1778 21.6068 34.1527V26.416C21.6099 25.3909 22.0342 24.4086 22.787 23.6838C23.5397 22.9589 24.5598 22.5503 25.6243 22.5473H33.6585ZM33.6585 21H25.6243C22.5309 21 20 23.4371 20 26.416V34.1527C20 37.1315 22.5309 39.5686 25.6243 39.5686H33.6585C36.752 39.5686 39.2828 37.1315 39.2828 34.1527V26.416C39.2828 23.4371 36.752 21 33.6585 21Z" fill="currentColor"/>
        <path d="M34.8638 26.4168C34.6254 26.4168 34.3924 26.3487 34.1942 26.2212C33.996 26.0937 33.8416 25.9124 33.7504 25.7004C33.6591 25.4883 33.6353 25.255 33.6818 25.0298C33.7283 24.8047 33.8431 24.5979 34.0116 24.4356C34.1802 24.2733 34.3949 24.1628 34.6287 24.118C34.8625 24.0732 35.1048 24.0962 35.325 24.184C35.5452 24.2719 35.7334 24.4206 35.8659 24.6115C35.9983 24.8023 36.069 25.0267 36.069 25.2562C36.0693 25.4087 36.0384 25.5598 35.9779 25.7007C35.9175 25.8417 35.8287 25.9698 35.7167 26.0776C35.6048 26.1854 35.4718 26.2709 35.3254 26.3291C35.179 26.3873 35.0222 26.4171 34.8638 26.4168ZM29.6415 27.1902C30.2772 27.1902 30.8986 27.3717 31.4271 27.7118C31.9556 28.0519 32.3676 28.5352 32.6108 29.1007C32.8541 29.6663 32.9177 30.2885 32.7937 30.8889C32.6697 31.4893 32.3636 32.0407 31.9141 32.4736C31.4646 32.9064 30.892 33.2012 30.2685 33.3206C29.6451 33.44 28.9989 33.3787 28.4116 33.1445C27.8243 32.9102 27.3224 32.5135 26.9692 32.0046C26.6161 31.4956 26.4276 30.8972 26.4276 30.2851C26.4285 29.4646 26.7674 28.6779 27.3699 28.0976C27.9725 27.5174 28.7894 27.1911 29.6415 27.1902ZM29.6415 25.6429C28.6881 25.6429 27.756 25.9152 26.9633 26.4253C26.1705 26.9354 25.5526 27.6604 25.1878 28.5086C24.8229 29.3569 24.7274 30.2903 24.9134 31.1908C25.0994 32.0913 25.5586 32.9184 26.2328 33.5676C26.9069 34.2168 27.7659 34.659 28.701 34.8381C29.6362 35.0172 30.6054 34.9253 31.4863 34.5739C32.3672 34.2226 33.1201 33.6276 33.6498 32.8642C34.1795 32.1008 34.4622 31.2033 34.4622 30.2851C34.4622 29.0539 33.9543 27.8732 33.0503 27.0026C32.1462 26.132 30.92 25.6429 29.6415 25.6429Z" fill="currentColor"/>
    </g>
    <defs>
        <clipPath id="cclip0_1_1033">
            <rect width="20" height="19" fill="white" transform="translate(20 21)"/>
        </clipPath>
    </defs>
</symbol><symbol viewBox="0 0 19 19" fill="none" id="pinterest" xmlns="http://www.w3.org/2000/svg">
    <g clip-path="url(#fclip0_1_319)">
        <path d="M9.39535 0C4.394 0 0.338745 4.05345 0.338745 9.05256C0.338745 12.7585 2.57055 15.943 5.76058 17.3454C5.73632 16.7149 5.75654 15.9551 5.91826 15.2681C6.09212 14.5326 7.08268 10.3337 7.08268 10.3337C7.08268 10.3337 6.79158 9.75575 6.79158 8.90304C6.79158 7.56132 7.56786 6.55907 8.53821 6.55907C9.36301 6.55907 9.75923 7.17739 9.75923 7.91695C9.75923 8.74542 9.22958 9.98207 8.95869 11.1298C8.73228 12.0916 9.43983 12.8716 10.39 12.8716C12.1042 12.8716 13.2606 10.6691 13.2606 8.0584C13.2606 6.07411 11.9223 4.59094 9.49239 4.59094C6.7471 4.59094 5.03282 6.63989 5.03282 8.92728C5.03282 9.71534 5.26732 10.273 5.6312 10.7014C5.79697 10.8994 5.82123 10.9803 5.76058 11.2066C5.7161 11.3723 5.61907 11.7724 5.5746 11.934C5.51395 12.1644 5.32796 12.2452 5.12177 12.1603C3.85627 11.6431 3.26597 10.2609 3.26597 8.70097C3.26597 6.13069 5.43713 3.04716 9.73902 3.04716C13.1959 3.04716 15.4722 5.54874 15.4722 8.23217C15.4722 11.7845 13.4951 14.4356 10.584 14.4356C9.60559 14.4356 8.6878 13.9062 8.37244 13.3081C8.37244 13.3081 7.84683 15.3934 7.73363 15.7975C7.5436 16.4967 7.16759 17.1918 6.82392 17.7374C7.65757 17.9832 8.52214 18.1084 9.39131 18.1092C14.3927 18.1092 18.4479 14.0557 18.4479 9.05661C18.4479 4.05749 14.3967 0 9.39535 0Z" fill="currentColor"/>
    </g>
    <defs>
        <clipPath id="fclip0_1_319">
            <rect width="19" height="19" fill="white"/>
        </clipPath>
    </defs>
</symbol><symbol viewBox="0 0 60 60" fill="none" id="pinterest-f" xmlns="http://www.w3.org/2000/svg">
    <path d="M0 30C0 13.4315 13.4315 0 30 0C46.5685 0 60 13.4315 60 30C60 46.5685 46.5685 60 30 60C13.4315 60 0 46.5685 0 30Z" fill="currentColor"/>
    <g clip-path="url(#eclip0_1_1025)">
        <path d="M29.7966 20C24.3866 20 20 24.3847 20 29.7923C20 33.801 22.4142 37.2458 25.8649 38.7627C25.8386 38.0807 25.8605 37.2589 26.0354 36.5157C26.2235 35.7201 27.295 31.178 27.295 31.178C27.295 31.178 26.9801 30.5529 26.9801 29.6305C26.9801 28.1792 27.8198 27.095 28.8695 27.095C29.7617 27.095 30.1903 27.7639 30.1903 28.5639C30.1903 29.46 29.6173 30.7977 29.3243 32.0392C29.0794 33.0797 29.8448 33.9234 30.8725 33.9234C32.7269 33.9234 33.9777 31.5409 33.9777 28.7169C33.9777 26.5704 32.5301 24.9661 29.9016 24.9661C26.932 24.9661 25.0776 27.1824 25.0776 29.6567C25.0776 30.5092 25.3313 31.1125 25.7249 31.5759C25.9042 31.7901 25.9305 31.8775 25.8649 32.1223C25.8168 32.3015 25.7118 32.7343 25.6637 32.9092C25.5981 33.1584 25.3969 33.2458 25.1739 33.154C23.8049 32.5944 23.1664 31.0994 23.1664 29.4119C23.1664 26.6316 25.515 23.2961 30.1684 23.2961C33.9077 23.2961 36.37 26.0021 36.37 28.9048C36.37 32.7474 34.2314 35.6152 31.0824 35.6152C30.0241 35.6152 29.0313 35.0425 28.6901 34.3955C28.6901 34.3955 28.1216 36.6512 27.9991 37.0884C27.7936 37.8447 27.3868 38.5966 27.0151 39.1867C27.9169 39.4526 28.8521 39.5881 29.7923 39.5889C35.2023 39.5889 39.5889 35.2042 39.5889 29.7966C39.5889 24.389 35.2067 20 29.7966 20Z" fill="currentColor"/>
    </g>
    <defs>
        <clipPath id="eclip0_1_1025">
            <rect width="20" height="20" fill="white" transform="translate(20 20)"/>
        </clipPath>
    </defs>
</symbol><symbol viewBox="0 0 20 17" fill="none" id="twitter" xmlns="http://www.w3.org/2000/svg">
    <g clip-path="url(#hclip0_1_321)">
        <path d="M19.4765 2.65911C18.76 2.97042 18.002 3.17551 17.2263 3.26791C18.0415 2.79057 18.6545 2.03224 18.9504 1.13513C18.1797 1.5858 17.3379 1.90201 16.4611 2.07021C16.0919 1.68326 15.6479 1.37543 15.156 1.16543C14.6641 0.955431 14.1346 0.847651 13.5998 0.84864C11.4344 0.84864 9.682 2.57555 9.682 4.70435C9.68046 5.00046 9.71439 5.29569 9.78306 5.58373C8.23031 5.51093 6.70984 5.11483 5.31894 4.42075C3.92805 3.72667 2.69734 2.7499 1.70556 1.55293C1.35762 2.1395 1.17361 2.80874 1.17277 3.49074C1.17277 4.8277 1.8703 6.00949 2.92355 6.70184C2.29953 6.68703 1.68829 6.52187 1.14173 6.22038V6.26813C1.14173 8.13829 2.49461 9.6941 4.28519 10.0482C3.94848 10.138 3.6015 10.1835 3.25302 10.1835C3.00575 10.184 2.75905 10.16 2.5165 10.1119C3.01428 11.6438 4.46306 12.758 6.17923 12.7898C4.78471 13.8645 3.07262 14.4454 1.31203 14.4411C0.999525 14.4407 0.687306 14.4221 0.376953 14.3854C2.168 15.5291 4.24995 16.134 6.375 16.1282C13.5914 16.1282 17.5339 10.2512 17.5339 5.15399C17.5339 4.98687 17.5295 4.81975 17.5215 4.6566C18.2868 4.11229 18.9488 3.43587 19.4765 2.65911Z" fill="currentColor"/>
    </g>
    <defs>
        <clipPath id="hclip0_1_321">
            <rect width="20" height="17" fill="white"/>
        </clipPath>
    </defs>
</symbol><symbol viewBox="0 0 60 60" fill="none" id="twitter-f" xmlns="http://www.w3.org/2000/svg">
    <path d="M0 30C0 13.4315 13.4315 0 30 0C46.5685 0 60 13.4315 60 30C60 46.5685 46.5685 60 30 60C13.4315 60 0 46.5685 0 30Z" fill="currentColor"/>
    <g clip-path="url(#gclip0_1_1029)">
        <path d="M40.6602 23.9584C39.8852 24.2952 39.0652 24.517 38.2261 24.617C39.1079 24.1006 39.7711 23.2803 40.0912 22.3099C39.2575 22.7974 38.3469 23.1395 37.3984 23.3214C36.9991 22.9028 36.5187 22.5698 35.9866 22.3427C35.4546 22.1155 34.8818 21.9989 34.3033 22C31.9609 22 30.0654 23.868 30.0654 26.1708C30.0637 26.4911 30.1004 26.8104 30.1747 27.122C28.4951 27.0433 26.8504 26.6148 25.3458 25.864C23.8413 25.1132 22.51 24.0566 21.4372 22.7619C21.0608 23.3963 20.8618 24.1203 20.8608 24.858C20.8608 26.3042 21.6154 27.5826 22.7547 28.3315C22.0797 28.3155 21.4185 28.1368 20.8273 27.8107V27.8623C20.8273 29.8853 22.2907 31.5682 24.2276 31.9513C23.8634 32.0484 23.488 32.0976 23.1111 32.0977C22.8436 32.0981 22.5767 32.0722 22.3144 32.0202C22.8528 33.6773 24.42 34.8825 26.2764 34.9169C24.7679 36.0794 22.9159 36.7078 21.0115 36.7032C20.6734 36.7027 20.3357 36.6825 20 36.6429C21.9374 37.88 24.1895 38.5344 26.4882 38.5281C34.2943 38.5281 38.5589 32.1708 38.5589 26.6571C38.5589 26.4764 38.5541 26.2956 38.5455 26.1191C39.3733 25.5303 40.0893 24.7987 40.6602 23.9584Z" fill="currentColor"/>
    </g>
    <defs>
        <clipPath id="gclip0_1_1029">
            <rect width="21" height="17" fill="white" transform="translate(20 22)"/>
        </clipPath>
    </defs>
</symbol></svg>