<svg width="129" height="33" viewBox="0 0 129 33" fill="none" xmlns="http://www.w3.org/2000/svg">
<path d="M-0.00799561 3.34407C0.568004 3.36537 1.33601 3.38678 2.29601 3.40808C3.25601 3.42938 4.216 3.44007 5.176 3.44007C6.2213 3.44007 7.224 3.42938 8.184 3.40808C9.1653 3.38678 9.8587 3.37607 10.264 3.37607C13.0373 3.37607 15.1067 3.84537 16.472 4.78407C17.8587 5.72277 18.552 6.92807 18.552 8.40007C18.552 9.14677 18.3067 9.91477 17.816 10.7041C17.3253 11.4721 16.568 12.1654 15.544 12.7841C14.5413 13.3814 13.2507 13.7974 11.672 14.0321V14.0961C13.7627 14.2241 15.4267 14.5868 16.664 15.1841C17.9227 15.7601 18.8293 16.4534 19.384 17.2641C19.9387 18.0748 20.216 18.9174 20.216 19.7921C20.216 21.1788 19.8427 22.3308 19.096 23.2481C18.3707 24.1654 17.3147 24.8588 15.928 25.3281C14.5627 25.7761 12.92 26.0001 11 26.0001C10.488 26.0001 9.7413 25.9894 8.76 25.9681C7.7787 25.9254 6.60531 25.9041 5.24001 25.9041C4.23731 25.9041 3.25601 25.9148 2.29601 25.9361C1.33601 25.9361 0.568004 25.9574 -0.00799561 26.0001V25.3601C0.653304 25.3174 1.144 25.2321 1.464 25.1041C1.8053 24.9761 2.02931 24.7201 2.13601 24.3361C2.26401 23.9521 2.328 23.3761 2.328 22.6081V6.73607C2.328 5.94677 2.26401 5.37077 2.13601 5.00807C2.02931 4.62407 1.8053 4.36807 1.464 4.24007C1.144 4.09077 0.653304 4.00537 -0.00799561 3.98407V3.34407ZM9.97601 3.98407C9.20801 3.98407 8.7067 4.16537 8.472 4.52807C8.2373 4.89077 8.12 5.62677 8.12 6.73607V22.6081C8.12 23.3548 8.1733 23.9201 8.28 24.3041C8.408 24.6881 8.6213 24.9441 8.92 25.0721C9.2187 25.2001 9.6667 25.2641 10.264 25.2641C11.6293 25.2641 12.6213 24.7841 13.24 23.8241C13.88 22.8428 14.2 21.4561 14.2 19.6641C14.2 18.0214 13.7947 16.7521 12.984 15.8561C12.1947 14.9601 10.872 14.5121 9.016 14.5121H6.488C6.488 14.5121 6.488 14.4268 6.488 14.2561C6.488 14.0641 6.488 13.9681 6.488 13.9681H9.24001C10.1573 13.9681 10.8613 13.7334 11.352 13.2641C11.8427 12.7734 12.184 12.1334 12.376 11.3441C12.568 10.5334 12.664 9.66938 12.664 8.75208C12.664 7.17338 12.4507 5.98938 12.024 5.20008C11.6187 4.38938 10.936 3.98407 9.97601 3.98407ZM38.1513 9.07207V22.5121C38.1513 23.4721 38.2899 24.1868 38.5673 24.6561C38.8659 25.1041 39.3673 25.3281 40.0713 25.3281V26.0001C39.4099 25.9361 38.7486 25.9041 38.0873 25.9041C37.1059 25.9041 36.1886 25.9361 35.3353 26.0001C34.5033 26.0641 33.7139 26.1814 32.9673 26.3521V23.7601C32.4553 24.7201 31.7513 25.4134 30.8553 25.8401C29.9806 26.2454 28.9779 26.4481 27.8473 26.4481C26.9086 26.4481 26.1513 26.3308 25.5753 26.0961C25.0206 25.8614 24.5939 25.5521 24.2953 25.1681C23.9539 24.7841 23.7086 24.2721 23.5593 23.6321C23.4099 22.9708 23.3353 22.1068 23.3353 21.0401V12.9121C23.3353 11.9521 23.1966 11.2481 22.9193 10.8001C22.6419 10.3308 22.1406 10.0961 21.4153 10.0961V9.42407C22.0979 9.48807 22.7593 9.52007 23.3993 9.52007C24.3806 9.52007 25.2979 9.48807 26.1513 9.42407C27.0046 9.33877 27.7939 9.22137 28.5193 9.07207V22.5761C28.5193 23.0668 28.5726 23.4828 28.6793 23.8241C28.7859 24.1654 28.9673 24.4321 29.2233 24.6241C29.4793 24.8161 29.8206 24.9121 30.2473 24.9121C30.7379 24.9121 31.1859 24.7841 31.5913 24.5281C31.9966 24.2721 32.3273 23.9201 32.5833 23.4721C32.8393 23.0028 32.9673 22.4801 32.9673 21.9041V12.9121C32.9673 11.9521 32.8286 11.2481 32.5513 10.8001C32.2739 10.3308 31.7726 10.0961 31.0473 10.0961V9.42407C31.7299 9.48807 32.3913 9.52007 33.0313 9.52007C34.0126 9.52007 34.9299 9.48807 35.7833 9.42407C36.6366 9.33877 37.4259 9.22137 38.1513 9.07207ZM45.7115 1.07207C46.714 1.07207 47.493 1.29607 48.048 1.74407C48.624 2.19207 48.911 2.84277 48.911 3.69607C48.911 4.54937 48.624 5.20008 48.048 5.64808C47.493 6.09608 46.714 6.32007 45.7115 6.32007C44.7088 6.32007 43.9195 6.09608 43.3435 5.64808C42.7888 5.20008 42.5115 4.54937 42.5115 3.69607C42.5115 2.84277 42.7888 2.19207 43.3435 1.74407C43.9195 1.29607 44.7088 1.07207 45.7115 1.07207ZM48.528 9.07207V23.0241C48.528 23.9201 48.666 24.5281 48.944 24.8481C49.242 25.1681 49.744 25.3281 50.448 25.3281V26.0001C50.021 25.9788 49.392 25.9574 48.56 25.9361C47.728 25.8934 46.885 25.8721 46.032 25.8721C45.1782 25.8721 44.3035 25.8934 43.4075 25.9361C42.5328 25.9574 41.8715 25.9788 41.4235 26.0001V25.3281C42.1275 25.3281 42.6182 25.1681 42.8955 24.8481C43.1942 24.5281 43.3435 23.9201 43.3435 23.0241V12.9121C43.3435 11.9521 43.2048 11.2481 42.9275 10.8001C42.6502 10.3308 42.1488 10.0961 41.4235 10.0961V9.42407C42.1062 9.48807 42.7675 9.52007 43.4075 9.52007C44.3675 9.52007 45.2742 9.48807 46.128 9.42407C47.002 9.33877 47.802 9.22137 48.528 9.07207ZM58.743 0.976074V23.0241C58.743 23.9201 58.882 24.5281 59.159 24.8481C59.458 25.1681 59.959 25.3281 60.663 25.3281V26.0001C60.258 25.9788 59.639 25.9574 58.807 25.9361C57.975 25.8934 57.122 25.8721 56.247 25.8721C55.394 25.8721 54.519 25.8934 53.623 25.9361C52.749 25.9574 52.087 25.9788 51.639 26.0001V25.3281C52.343 25.3281 52.834 25.1681 53.111 24.8481C53.41 24.5281 53.559 23.9201 53.559 23.0241V4.78407C53.559 3.84537 53.421 3.15207 53.143 2.70407C52.887 2.23477 52.386 2.00007 51.639 2.00007V1.32807C52.322 1.39207 52.983 1.42407 53.623 1.42407C54.605 1.42407 55.522 1.39207 56.375 1.32807C57.229 1.24277 58.018 1.12537 58.743 0.976074ZM77.801 0.976074V22.4801C77.801 23.4401 77.939 24.1548 78.217 24.6241C78.515 25.0721 79.017 25.2961 79.721 25.2961V25.9681C79.059 25.9041 78.398 25.8721 77.737 25.8721C76.777 25.8721 75.87 25.9041 75.017 25.9681C74.163 26.0321 73.363 26.1494 72.617 26.3201V4.81607C72.617 3.85607 72.478 3.15207 72.201 2.70407C71.945 2.23477 71.443 2.00007 70.697 2.00007V1.32807C71.379 1.39207 72.041 1.42407 72.681 1.42407C73.662 1.42407 74.579 1.39207 75.433 1.32807C76.286 1.24277 77.075 1.12537 77.801 0.976074ZM69.193 8.97607C70.131 8.97607 70.942 9.11477 71.625 9.39207C72.307 9.64807 72.873 10.0854 73.321 10.7041L72.937 11.0241C72.659 10.6614 72.318 10.3948 71.913 10.2241C71.529 10.0534 71.123 9.96807 70.697 9.96807C69.673 9.96807 68.873 10.6081 68.297 11.8881C67.742 13.1468 67.465 15.0881 67.465 17.7121C67.465 19.5468 67.571 20.9974 67.785 22.0641C68.019 23.1094 68.329 23.8454 68.713 24.2721C69.118 24.6988 69.566 24.9121 70.057 24.9121C70.718 24.9121 71.305 24.6668 71.817 24.1761C72.35 23.6641 72.627 22.9921 72.649 22.1601L72.745 23.5041C72.361 24.4854 71.827 25.2214 71.145 25.7121C70.483 26.2028 69.63 26.4481 68.585 26.4481C67.347 26.4481 66.227 26.1388 65.225 25.5201C64.243 24.9014 63.465 23.9521 62.889 22.6721C62.334 21.3708 62.057 19.6854 62.057 17.6161C62.057 15.6748 62.355 14.0748 62.953 12.8161C63.571 11.5361 64.414 10.5761 65.481 9.93608C66.569 9.29607 67.806 8.97607 69.193 8.97607ZM85.274 1.07207C86.277 1.07207 87.055 1.29607 87.61 1.74407C88.186 2.19207 88.474 2.84277 88.474 3.69607C88.474 4.54937 88.186 5.20008 87.61 5.64808C87.055 6.09608 86.277 6.32007 85.274 6.32007C84.271 6.32007 83.482 6.09608 82.906 5.64808C82.351 5.20008 82.074 4.54937 82.074 3.69607C82.074 2.84277 82.351 2.19207 82.906 1.74407C83.482 1.29607 84.271 1.07207 85.274 1.07207ZM88.09 9.07207V23.0241C88.09 23.9201 88.229 24.5281 88.506 24.8481C88.805 25.1681 89.306 25.3281 90.01 25.3281V26.0001C89.583 25.9788 88.954 25.9574 88.122 25.9361C87.29 25.8934 86.447 25.8721 85.594 25.8721C84.741 25.8721 83.866 25.8934 82.97 25.9361C82.095 25.9574 81.434 25.9788 80.986 26.0001V25.3281C81.69 25.3281 82.181 25.1681 82.458 24.8481C82.757 24.5281 82.906 23.9201 82.906 23.0241V12.9121C82.906 11.9521 82.767 11.2481 82.49 10.8001C82.213 10.3308 81.711 10.0961 80.986 10.0961V9.42407C81.669 9.48807 82.33 9.52007 82.97 9.52007C83.93 9.52007 84.837 9.48807 85.69 9.42407C86.565 9.33877 87.365 9.22137 88.09 9.07207ZM103.586 8.97607C104.524 8.97607 105.271 9.09337 105.826 9.32807C106.402 9.56277 106.839 9.86138 107.138 10.2241C107.479 10.6294 107.724 11.1521 107.874 11.7921C108.044 12.4321 108.13 13.2961 108.13 14.3841V23.0241C108.13 23.9201 108.268 24.5281 108.546 24.8481C108.844 25.1681 109.346 25.3281 110.05 25.3281V26.0001C109.623 25.9788 108.983 25.9574 108.13 25.9361C107.298 25.8934 106.487 25.8721 105.698 25.8721C104.823 25.8721 103.98 25.8934 103.17 25.9361C102.359 25.9574 101.751 25.9788 101.346 26.0001V25.3281C101.943 25.3281 102.359 25.1681 102.594 24.8481C102.828 24.5281 102.946 23.9201 102.946 23.0241V12.8481C102.946 12.3574 102.892 11.9414 102.786 11.6001C102.679 11.2374 102.498 10.9708 102.242 10.8001C101.986 10.6081 101.623 10.5121 101.154 10.5121C100.663 10.5121 100.204 10.6401 99.778 10.8961C99.372 11.1521 99.042 11.5148 98.786 11.9841C98.551 12.4321 98.434 12.9441 98.434 13.5201V23.0241C98.434 23.9201 98.551 24.5281 98.786 24.8481C99.02 25.1681 99.436 25.3281 100.034 25.3281V26.0001C99.628 25.9788 99.042 25.9574 98.274 25.9361C97.506 25.8934 96.727 25.8721 95.938 25.8721C95.063 25.8721 94.188 25.8934 93.314 25.9361C92.439 25.9574 91.778 25.9788 91.33 26.0001V25.3281C92.034 25.3281 92.524 25.1681 92.802 24.8481C93.1 24.5281 93.25 23.9201 93.25 23.0241V12.9121C93.25 11.9521 93.111 11.2481 92.834 10.8001C92.556 10.3308 92.055 10.0961 91.33 10.0961V9.42407C92.012 9.48807 92.674 9.52007 93.314 9.52007C94.274 9.52007 95.18 9.48807 96.034 9.42407C96.908 9.33877 97.708 9.22137 98.434 9.07207V11.6641C98.946 10.6828 99.639 9.98937 100.514 9.58407C101.41 9.17877 102.434 8.97607 103.586 8.97607ZM117.227 32.0161C115.84 32.0161 114.624 31.8988 113.579 31.6641C112.533 31.4508 111.723 31.1201 111.147 30.6721C110.571 30.2454 110.283 29.7228 110.283 29.1041C110.283 28.4641 110.581 27.8774 111.179 27.3441C111.776 26.8321 112.693 26.4268 113.931 26.1281L114.219 26.6401C113.856 27.0028 113.6 27.3548 113.451 27.6961C113.301 28.0588 113.227 28.4108 113.227 28.7521C113.227 29.6268 113.621 30.2988 114.411 30.7681C115.2 31.2374 116.288 31.4721 117.675 31.4721C118.635 31.4721 119.467 31.3334 120.171 31.0561C120.875 30.8001 121.419 30.4268 121.803 29.9361C122.187 29.4454 122.379 28.8694 122.379 28.2081C122.379 27.5894 122.144 27.0668 121.675 26.6401C121.227 26.2134 120.309 26.0001 118.923 26.0001H117.067C116.149 26.0001 115.36 25.8828 114.699 25.6481C114.037 25.4134 113.525 25.0828 113.163 24.6561C112.821 24.2294 112.651 23.6961 112.651 23.0561C112.651 22.0961 113.024 21.2854 113.771 20.6241C114.517 19.9414 115.552 19.3121 116.875 18.7361L117.163 18.9921C116.843 19.1841 116.533 19.4081 116.235 19.6641C115.957 19.9201 115.819 20.2614 115.819 20.6881C115.819 21.3708 116.224 21.7121 117.035 21.7121H120.331C121.611 21.7121 122.741 21.8614 123.723 22.1601C124.704 22.4374 125.472 22.9068 126.027 23.5681C126.603 24.2081 126.891 25.0508 126.891 26.0961C126.891 27.1628 126.549 28.1441 125.867 29.0401C125.184 29.9361 124.128 30.6508 122.699 31.1841C121.291 31.7388 119.467 32.0161 117.227 32.0161ZM117.643 19.1841C116.363 19.1841 115.221 19.0028 114.219 18.6401C113.237 18.2774 112.459 17.7228 111.883 16.9761C111.307 16.2081 111.019 15.2374 111.019 14.0641C111.019 12.8908 111.307 11.9308 111.883 11.1841C112.459 10.4374 113.237 9.88277 114.219 9.52007C115.221 9.15738 116.363 8.97607 117.643 8.97607C118.901 8.97607 120.032 9.15738 121.035 9.52007C122.037 9.88277 122.827 10.4374 123.403 11.1841C123.979 11.9308 124.267 12.8908 124.267 14.0641C124.267 15.2374 123.979 16.2081 123.403 16.9761C122.827 17.7228 122.037 18.2774 121.035 18.6401C120.032 19.0028 118.901 19.1841 117.643 19.1841ZM117.643 18.6081C118.112 18.6081 118.485 18.2774 118.763 17.6161C119.061 16.9548 119.211 15.7708 119.211 14.0641C119.211 12.3574 119.061 11.1841 118.763 10.5441C118.485 9.88278 118.112 9.55207 117.643 9.55207C117.152 9.55207 116.768 9.88278 116.491 10.5441C116.213 11.1841 116.075 12.3574 116.075 14.0641C116.075 15.7708 116.213 16.9548 116.491 17.6161C116.768 18.2774 117.152 18.6081 117.643 18.6081ZM122.731 11.7601L122.059 11.5361C122.4 10.6614 122.923 9.95737 123.627 9.42407C124.352 8.86937 125.141 8.59207 125.995 8.59207C126.699 8.59207 127.221 8.78407 127.563 9.16807C127.925 9.55207 128.107 10.0534 128.107 10.6721C128.107 11.2908 127.936 11.7708 127.595 12.1121C127.275 12.4321 126.891 12.5921 126.443 12.5921C126.059 12.5921 125.707 12.4641 125.387 12.2081C125.067 11.9308 124.885 11.5254 124.843 10.9921C124.8 10.4374 124.992 9.74407 125.419 8.91208L125.611 9.10407C124.821 9.38137 124.213 9.72277 123.787 10.1281C123.381 10.5334 123.029 11.0774 122.731 11.7601Z" fill="#1C2752" fill-opacity="0.4"/>
</svg>
